<mxfile host="app.diagrams.net" modified="2023-11-26T11:39:08.339Z" agent="Mozilla/5.0 (Macintosh; Intel Mac OS X 10_15_7) AppleWebKit/537.36 (KHTML, like Gecko) Chrome/119.0.0.0 Safari/537.36" version="22.1.4" etag="TBu_4LQJh4P3bI8yjgkO" type="github">
  <diagram name="第 1 页" id="wMAmLih8ta5HbyE_g1Hq">
    <mxGraphModel>
      <root>
        <mxCell id="0" />
        <mxCell id="1" parent="0" />
      </root>
    </mxGraphModel>
  </diagram>
</mxfile>
